NotoSansShavian-Regular.ufo
<glyph name="u10450" format="2">
  <advance width="359"/>
  <unicode hex="10450"/>
  <outline>
    <contour>
      <point x="181" y="0" type="line"/>
      <point x="271" y="0" type="line"/>
      <point x="271" y="467" type="line" smooth="yes"/>
      <point x="271" y="635"/>
      <point x="207" y="771"/>
      <point x="10" y="771" type="curve"/>
      <point x="10" y="688" type="line"/>
      <point x="132" y="688"/>
      <point x="181" y="595"/>
      <point x="181" y="467" type="curve" smooth="yes"/>
    </contour>
  </outline>
</glyph>
<glyph name="u10451" format="2">
  <advance width="381"/>
  <unicode hex="10451"/>
  <outline>
    <contour>
      <point x="203" y="0" type="line"/>
      <point x="293" y="0" type="line"/>
      <point x="293" y="771" type="line"/>
      <point x="213" y="771" type="line"/>
      <point x="167" y="688"/>
      <point x="70" y="629"/>
      <point x="10" y="612" type="curve"/>
      <point x="10" y="529" type="line"/>
      <point x="92" y="552"/>
      <point x="175" y="604"/>
      <point x="203" y="637" type="curve"/>
    </contour>
  </outline>
</glyph>
<glyph name="u10452" format="2">
  <advance width="469"/>
  <unicode hex="10452"/>
  <outline>
    <contour>
      <point x="381" y="-10" type="curve"/>
      <point x="381" y="73" type="line"/>
      <point x="249" y="77"/>
      <point x="144" y="129"/>
      <point x="144" y="259" type="curve" smooth="yes"/>
      <point x="144" y="399"/>
      <point x="235" y="432"/>
      <point x="277" y="432" type="curve" smooth="yes"/>
      <point x="313" y="432"/>
      <point x="332" y="421"/>
      <point x="345" y="413" type="curve"/>
      <point x="391" y="413" type="line"/>
      <point x="391" y="771" type="line"/>
      <point x="301" y="771" type="line"/>
      <point x="301" y="509" type="line"/>
      <point x="283" y="514"/>
      <point x="277" y="514"/>
      <point x="258" y="514" type="curve" smooth="yes"/>
      <point x="166" y="514"/>
      <point x="49" y="425"/>
      <point x="49" y="260" type="curve" smooth="yes"/>
      <point x="49" y="96"/>
      <point x="165" y="-10"/>
    </contour>
  </outline>
</glyph>
<glyph name="u10453" format="2">
  <advance width="359"/>
  <unicode hex="10453"/>
  <outline>
    <contour>
      <point x="10" y="0" type="line"/>
      <point x="207" y="0"/>
      <point x="271" y="136"/>
      <point x="271" y="304" type="curve" smooth="yes"/>
      <point x="271" y="771" type="line"/>
      <point x="181" y="771" type="line"/>
      <point x="181" y="304" type="line" smooth="yes"/>
      <point x="181" y="177"/>
      <point x="132" y="83"/>
      <point x="10" y="83" type="curve"/>
    </contour>
  </outline>
</glyph>
<glyph name="u10454" format="2">
  <advance width="544"/>
  <unicode hex="10454"/>
  <outline>
    <contour>
      <point x="247" y="-10" type="curve" smooth="yes"/>
      <point x="386" y="-10"/>
      <point x="481" y="97"/>
      <point x="481" y="277" type="curve" smooth="yes"/>
      <point x="481" y="479"/>
      <point x="391" y="681"/>
      <point x="222" y="781" type="curve"/>
      <point x="173" y="712" type="line"/>
      <point x="315" y="616"/>
      <point x="387" y="462"/>
      <point x="387" y="268" type="curve" smooth="yes"/>
      <point x="387" y="137"/>
      <point x="325" y="73"/>
      <point x="247" y="73" type="curve" smooth="yes"/>
      <point x="191" y="73"/>
      <point x="140" y="107"/>
      <point x="140" y="214" type="curve" smooth="yes"/>
      <point x="140" y="311"/>
      <point x="231" y="393"/>
      <point x="324" y="426" type="curve"/>
      <point x="291" y="505" type="line"/>
      <point x="113" y="437"/>
      <point x="49" y="303"/>
      <point x="49" y="213" type="curve" smooth="yes"/>
      <point x="49" y="79"/>
      <point x="125" y="-10"/>
    </contour>
  </outline>
</glyph>
<glyph name="u10455" format="2">
  <advance width="399"/>
  <unicode hex="10455"/>
  <outline>
    <contour>
      <point x="146" y="-10" type="curve" smooth="yes"/>
      <point x="263" y="-10"/>
      <point x="351" y="64"/>
      <point x="351" y="216" type="curve" smooth="yes"/>
      <point x="351" y="427"/>
      <point x="140" y="519"/>
      <point x="140" y="649" type="curve" smooth="yes"/>
      <point x="140" y="676"/>
      <point x="156" y="698"/>
      <point x="200" y="698" type="curve" smooth="yes"/>
      <point x="238" y="698"/>
      <point x="264" y="694"/>
      <point x="288" y="686" type="curve"/>
      <point x="308" y="762" type="line"/>
      <point x="275" y="774"/>
      <point x="248" y="781"/>
      <point x="194" y="781" type="curve" smooth="yes"/>
      <point x="104" y="781"/>
      <point x="49" y="729"/>
      <point x="49" y="649" type="curve" smooth="yes"/>
      <point x="49" y="487"/>
      <point x="260" y="393"/>
      <point x="260" y="216" type="curve" smooth="yes"/>
      <point x="260" y="106"/>
      <point x="214" y="73"/>
      <point x="154" y="73" type="curve" smooth="yes"/>
      <point x="124" y="73"/>
      <point x="100" y="77"/>
      <point x="82" y="84" type="curve"/>
      <point x="70" y="0" type="line"/>
      <point x="93" y="-6"/>
      <point x="118" y="-10"/>
    </contour>
  </outline>
</glyph>
<glyph name="u10456" format="2">
  <advance width="443"/>
  <unicode hex="10456"/>
  <outline>
    <contour>
      <point x="257" y="-10" type="curve" smooth="yes"/>
      <point x="318" y="-10"/>
      <point x="379" y="-1"/>
      <point x="428" y="14" type="curve"/>
      <point x="428" y="99" type="line"/>
      <point x="387" y="84"/>
      <point x="324" y="73"/>
      <point x="270" y="73" type="curve" smooth="yes"/>
      <point x="192" y="73"/>
      <point x="140" y="79"/>
      <point x="140" y="209" type="curve" smooth="yes"/>
      <point x="140" y="362"/>
      <point x="192" y="557"/>
      <point x="323" y="738" type="curve"/>
      <point x="255" y="781" type="line"/>
      <point x="116" y="607"/>
      <point x="49" y="373"/>
      <point x="49" y="208" type="curve" smooth="yes"/>
      <point x="49" y="28"/>
      <point x="137" y="-10"/>
    </contour>
  </outline>
</glyph>
<glyph name="u10457" format="2">
  <advance width="480"/>
  <unicode hex="10457"/>
  <outline>
    <contour>
      <point x="294" y="-10" type="curve" smooth="yes"/>
      <point x="355" y="-10"/>
      <point x="417" y="-1"/>
      <point x="465" y="14" type="curve"/>
      <point x="465" y="99" type="line"/>
      <point x="424" y="84"/>
      <point x="361" y="73"/>
      <point x="307" y="73" type="curve" smooth="yes"/>
      <point x="229" y="73"/>
      <point x="177" y="79"/>
      <point x="177" y="209" type="curve" smooth="yes"/>
      <point x="177" y="362"/>
      <point x="229" y="557"/>
      <point x="360" y="738" type="curve"/>
      <point x="292" y="781" type="line"/>
      <point x="257" y="738"/>
      <point x="228" y="691"/>
      <point x="202" y="643" type="curve"/>
      <point x="163" y="610"/>
      <point x="107" y="594"/>
      <point x="48" y="594" type="curve" smooth="yes"/>
      <point x="38" y="594"/>
      <point x="26" y="594"/>
      <point x="15" y="595" type="curve"/>
      <point x="15" y="512" type="line"/>
      <point x="27" y="511"/>
      <point x="39" y="511"/>
      <point x="51" y="511" type="curve" smooth="yes"/>
      <point x="85" y="511"/>
      <point x="118" y="515"/>
      <point x="147" y="522" type="curve"/>
      <point x="106" y="411"/>
      <point x="86" y="299"/>
      <point x="86" y="208" type="curve" smooth="yes"/>
      <point x="86" y="28"/>
      <point x="174" y="-10"/>
    </contour>
  </outline>
</glyph>
<glyph name="u10458" format="2">
  <advance width="338"/>
  <unicode hex="10458"/>
  <outline>
    <contour>
      <point x="245" y="-10" type="line"/>
      <point x="328" y="16" type="line"/>
      <point x="93" y="781" type="line"/>
      <point x="10" y="755" type="line"/>
    </contour>
  </outline>
</glyph>
<glyph name="u10459" format="2">
  <advance width="402"/>
  <unicode hex="10459"/>
  <outline>
    <contour>
      <point x="58" y="-10" type="line"/>
      <point x="113" y="28"/>
      <point x="161" y="73"/>
      <point x="201" y="123" type="curve"/>
      <point x="240" y="73"/>
      <point x="288" y="28"/>
      <point x="344" y="-10" type="curve"/>
      <point x="387" y="59" type="line"/>
      <point x="333" y="100"/>
      <point x="288" y="146"/>
      <point x="252" y="197" type="curve"/>
      <point x="312" y="299"/>
      <point x="342" y="414"/>
      <point x="342" y="531" type="curve" smooth="yes"/>
      <point x="342" y="667"/>
      <point x="304" y="781"/>
      <point x="201" y="781" type="curve" smooth="yes"/>
      <point x="95" y="781"/>
      <point x="60" y="667"/>
      <point x="60" y="531" type="curve" smooth="yes"/>
      <point x="60" y="414"/>
      <point x="90" y="299"/>
      <point x="150" y="197" type="curve"/>
      <point x="114" y="146"/>
      <point x="68" y="100"/>
      <point x="15" y="59" type="curve"/>
    </contour>
    <contour>
      <point x="201" y="287" type="curve"/>
      <point x="167" y="360"/>
      <point x="150" y="441"/>
      <point x="150" y="530" type="curve" smooth="yes"/>
      <point x="150" y="602"/>
      <point x="159" y="698"/>
      <point x="201" y="698" type="curve" smooth="yes"/>
      <point x="243" y="698"/>
      <point x="251" y="602"/>
      <point x="251" y="530" type="curve" smooth="yes"/>
      <point x="251" y="441"/>
      <point x="234" y="360"/>
    </contour>
  </outline>
</glyph>
<glyph name="u1045A" format="2">
  <advance width="359"/>
  <unicode hex="1045A"/>
  <outline>
    <contour>
      <point x="349" y="-235" type="curve"/>
      <point x="349" y="-152" type="line"/>
      <point x="227" y="-152"/>
      <point x="178" y="-59"/>
      <point x="178" y="69" type="curve" smooth="yes"/>
      <point x="178" y="536" type="line"/>
      <point x="88" y="536" type="line"/>
      <point x="88" y="69" type="line" smooth="yes"/>
      <point x="88" y="-99"/>
      <point x="152" y="-235"/>
    </contour>
  </outline>
</glyph>
<glyph name="u1045B" format="2">
  <advance width="381"/>
  <unicode hex="1045B"/>
  <outline>
    <contour>
      <point x="88" y="-235" type="line"/>
      <point x="168" y="-235" type="line"/>
      <point x="214" y="-152"/>
      <point x="311" y="-93"/>
      <point x="371" y="-76" type="curve"/>
      <point x="371" y="7" type="line"/>
      <point x="289" y="-16"/>
      <point x="206" y="-67"/>
      <point x="178" y="-101" type="curve"/>
      <point x="178" y="536" type="line"/>
      <point x="88" y="536" type="line"/>
    </contour>
  </outline>
</glyph>
<glyph name="u1045C" format="2">
  <advance width="469"/>
  <unicode hex="1045C"/>
  <outline>
    <contour>
      <point x="78" y="-235" type="line"/>
      <point x="168" y="-235" type="line"/>
      <point x="168" y="27" type="line"/>
      <point x="187" y="22"/>
      <point x="192" y="22"/>
      <point x="211" y="22" type="curve" smooth="yes"/>
      <point x="303" y="22"/>
      <point x="420" y="111"/>
      <point x="420" y="276" type="curve" smooth="yes"/>
      <point x="420" y="440"/>
      <point x="304" y="546"/>
      <point x="88" y="546" type="curve"/>
      <point x="88" y="463" type="line"/>
      <point x="220" y="459"/>
      <point x="326" y="407"/>
      <point x="326" y="277" type="curve" smooth="yes"/>
      <point x="326" y="137"/>
      <point x="234" y="104"/>
      <point x="192" y="104" type="curve" smooth="yes"/>
      <point x="156" y="104"/>
      <point x="138" y="115"/>
      <point x="124" y="124" type="curve"/>
      <point x="78" y="124" type="line"/>
    </contour>
  </outline>
</glyph>
<glyph name="u1045D" format="2">
  <advance width="359"/>
  <unicode hex="1045D"/>
  <outline>
    <contour>
      <point x="88" y="-235" type="line"/>
      <point x="178" y="-235" type="line"/>
      <point x="178" y="232" type="line" smooth="yes"/>
      <point x="178" y="359"/>
      <point x="227" y="453"/>
      <point x="349" y="453" type="curve"/>
      <point x="349" y="536" type="line"/>
      <point x="152" y="536"/>
      <point x="88" y="400"/>
      <point x="88" y="232" type="curve" smooth="yes"/>
    </contour>
  </outline>
</glyph>
<glyph name="u1045E" format="2">
  <advance width="544"/>
  <unicode hex="1045E"/>
  <outline>
    <contour>
      <point x="323" y="-245" type="curve"/>
      <point x="371" y="-176" type="line"/>
      <point x="229" y="-80"/>
      <point x="158" y="74"/>
      <point x="158" y="269" type="curve" smooth="yes"/>
      <point x="158" y="399"/>
      <point x="220" y="463"/>
      <point x="298" y="463" type="curve" smooth="yes"/>
      <point x="354" y="463"/>
      <point x="405" y="429"/>
      <point x="405" y="322" type="curve" smooth="yes"/>
      <point x="405" y="226"/>
      <point x="313" y="144"/>
      <point x="220" y="110" type="curve"/>
      <point x="253" y="31" type="line"/>
      <point x="431" y="99"/>
      <point x="496" y="229"/>
      <point x="496" y="323" type="curve" smooth="yes"/>
      <point x="496" y="475"/>
      <point x="414" y="546"/>
      <point x="292" y="546" type="curve" smooth="yes"/>
      <point x="153" y="546"/>
      <point x="63" y="439"/>
      <point x="63" y="259" type="curve" smooth="yes"/>
      <point x="63" y="57"/>
      <point x="153" y="-145"/>
    </contour>
  </outline>
</glyph>
<glyph name="u1045F" format="2">
  <advance width="399"/>
  <unicode hex="1045F"/>
  <outline>
    <contour>
      <point x="194" y="-245" type="curve" smooth="yes"/>
      <point x="248" y="-245"/>
      <point x="275" y="-238"/>
      <point x="308" y="-226" type="curve"/>
      <point x="288" y="-149" type="line"/>
      <point x="264" y="-158"/>
      <point x="238" y="-162"/>
      <point x="200" y="-162" type="curve" smooth="yes"/>
      <point x="156" y="-162"/>
      <point x="140" y="-140"/>
      <point x="140" y="-113" type="curve" smooth="yes"/>
      <point x="140" y="18"/>
      <point x="351" y="109"/>
      <point x="351" y="320" type="curve" smooth="yes"/>
      <point x="351" y="472"/>
      <point x="263" y="546"/>
      <point x="146" y="546" type="curve" smooth="yes"/>
      <point x="118" y="546"/>
      <point x="93" y="542"/>
      <point x="70" y="537" type="curve"/>
      <point x="82" y="452" type="line"/>
      <point x="100" y="459"/>
      <point x="124" y="463"/>
      <point x="154" y="463" type="curve" smooth="yes"/>
      <point x="214" y="463"/>
      <point x="260" y="430"/>
      <point x="260" y="320" type="curve" smooth="yes"/>
      <point x="260" y="144"/>
      <point x="49" y="49"/>
      <point x="49" y="-113" type="curve" smooth="yes"/>
      <point x="49" y="-193"/>
      <point x="104" y="-245"/>
    </contour>
  </outline>
</glyph>
<glyph name="u10460" format="2">
  <advance width="443"/>
  <unicode hex="10460"/>
  <outline>
    <contour>
      <point x="188" y="-245" type="line"/>
      <point x="327" y="-71"/>
      <point x="394" y="163"/>
      <point x="394" y="328" type="curve" smooth="yes"/>
      <point x="394" y="508"/>
      <point x="306" y="546"/>
      <point x="186" y="546" type="curve" smooth="yes"/>
      <point x="125" y="546"/>
      <point x="63" y="537"/>
      <point x="15" y="522" type="curve"/>
      <point x="15" y="437" type="line"/>
      <point x="56" y="452"/>
      <point x="119" y="463"/>
      <point x="173" y="463" type="curve" smooth="yes"/>
      <point x="251" y="463"/>
      <point x="303" y="458"/>
      <point x="303" y="327" type="curve" smooth="yes"/>
      <point x="303" y="174"/>
      <point x="251" y="-21"/>
      <point x="120" y="-202" type="curve"/>
    </contour>
  </outline>
</glyph>
<glyph name="u10461" format="2">
  <advance width="480"/>
  <unicode hex="10461"/>
  <outline>
    <contour>
      <point x="188" y="-245" type="line"/>
      <point x="222" y="-202"/>
      <point x="252" y="-155"/>
      <point x="278" y="-106" type="curve"/>
      <point x="316" y="-74"/>
      <point x="373" y="-58"/>
      <point x="432" y="-58" type="curve" smooth="yes"/>
      <point x="442" y="-58"/>
      <point x="454" y="-58"/>
      <point x="465" y="-59" type="curve"/>
      <point x="465" y="24" type="line"/>
      <point x="453" y="25"/>
      <point x="441" y="25"/>
      <point x="429" y="25" type="curve" smooth="yes"/>
      <point x="395" y="25"/>
      <point x="362" y="21"/>
      <point x="332" y="14" type="curve"/>
      <point x="374" y="125"/>
      <point x="394" y="237"/>
      <point x="394" y="328" type="curve" smooth="yes"/>
      <point x="394" y="508"/>
      <point x="306" y="546"/>
      <point x="186" y="546" type="curve" smooth="yes"/>
      <point x="125" y="546"/>
      <point x="63" y="537"/>
      <point x="15" y="522" type="curve"/>
      <point x="15" y="437" type="line"/>
      <point x="56" y="452"/>
      <point x="119" y="463"/>
      <point x="173" y="463" type="curve" smooth="yes"/>
      <point x="251" y="463"/>
      <point x="303" y="458"/>
      <point x="303" y="327" type="curve" smooth="yes"/>
      <point x="303" y="174"/>
      <point x="251" y="-21"/>
      <point x="120" y="-202" type="curve"/>
    </contour>
  </outline>
</glyph>
<glyph name="u10462" format="2">
  <advance width="338"/>
  <unicode hex="10462"/>
  <outline>
    <contour>
      <point x="93" y="-245" type="line"/>
      <point x="328" y="520" type="line"/>
      <point x="245" y="546" type="line"/>
      <point x="10" y="-219" type="line"/>
    </contour>
  </outline>
</glyph>
<glyph name="u10463" format="2">
  <advance width="402"/>
  <unicode hex="10463"/>
  <outline>
    <contour>
      <point x="201" y="-245" type="curve" smooth="yes"/>
      <point x="304" y="-245"/>
      <point x="342" y="-130"/>
      <point x="342" y="5" type="curve" smooth="yes"/>
      <point x="342" y="122"/>
      <point x="312" y="237"/>
      <point x="252" y="339" type="curve"/>
      <point x="288" y="390"/>
      <point x="333" y="437"/>
      <point x="387" y="477" type="curve"/>
      <point x="344" y="546" type="line"/>
      <point x="288" y="508"/>
      <point x="240" y="463"/>
      <point x="201" y="413" type="curve"/>
      <point x="161" y="463"/>
      <point x="113" y="508"/>
      <point x="58" y="546" type="curve"/>
      <point x="15" y="477" type="line"/>
      <point x="68" y="437"/>
      <point x="114" y="390"/>
      <point x="150" y="339" type="curve"/>
      <point x="90" y="237"/>
      <point x="60" y="122"/>
      <point x="60" y="5" type="curve" smooth="yes"/>
      <point x="60" y="-130"/>
      <point x="95" y="-245"/>
    </contour>
    <contour>
      <point x="201" y="-162" type="curve" smooth="yes"/>
      <point x="159" y="-162"/>
      <point x="150" y="-66"/>
      <point x="150" y="6" type="curve" smooth="yes"/>
      <point x="150" y="95"/>
      <point x="167" y="176"/>
      <point x="201" y="250" type="curve"/>
      <point x="234" y="176"/>
      <point x="251" y="95"/>
      <point x="251" y="6" type="curve" smooth="yes"/>
      <point x="251" y="-66"/>
      <point x="243" y="-162"/>
    </contour>
  </outline>
</glyph>
<glyph name="u10464" format="2">
  <advance width="426"/>
  <unicode hex="10464"/>
  <outline>
    <contour>
      <point x="333" y="-10" type="curve" smooth="yes"/>
      <point x="353" y="-10"/>
      <point x="371" y="-7"/>
      <point x="377" y="-7" type="curve"/>
      <point x="377" y="76" type="line"/>
      <point x="373" y="76"/>
      <point x="354" y="73"/>
      <point x="334" y="73" type="curve" smooth="yes"/>
      <point x="232" y="73"/>
      <point x="147" y="139"/>
      <point x="147" y="268" type="curve" smooth="yes"/>
      <point x="147" y="397"/>
      <point x="231" y="463"/>
      <point x="334" y="463" type="curve" smooth="yes"/>
      <point x="354" y="463"/>
      <point x="373" y="460"/>
      <point x="377" y="460" type="curve"/>
      <point x="377" y="543" type="line"/>
      <point x="371" y="543"/>
      <point x="353" y="546"/>
      <point x="333" y="546" type="curve" smooth="yes"/>
      <point x="178" y="546"/>
      <point x="56" y="455"/>
      <point x="56" y="267" type="curve" smooth="yes"/>
      <point x="56" y="79"/>
      <point x="178" y="-10"/>
    </contour>
  </outline>
</glyph>
<glyph name="u10465" format="2">
  <advance width="440"/>
  <unicode hex="10465"/>
  <outline>
    <contour>
      <point x="39" y="-10" type="line"/>
      <point x="166" y="-10"/>
      <point x="243" y="95"/>
      <point x="264" y="267" type="curve" smooth="yes"/>
      <point x="278" y="385"/>
      <point x="334" y="463"/>
      <point x="401" y="463" type="curve"/>
      <point x="401" y="546" type="line"/>
      <point x="275" y="546"/>
      <point x="200" y="437"/>
      <point x="178" y="274" type="curve" smooth="yes"/>
      <point x="161" y="150"/>
      <point x="106" y="73"/>
      <point x="39" y="73" type="curve"/>
    </contour>
  </outline>
</glyph>
<glyph name="u10466" format="2">
  <advance width="266"/>
  <unicode hex="10466"/>
  <outline>
    <contour>
      <point x="88" y="0" type="line"/>
      <point x="178" y="0" type="line"/>
      <point x="178" y="536" type="line"/>
      <point x="88" y="536" type="line"/>
    </contour>
  </outline>
</glyph>
<glyph name="u10467" format="2">
  <advance width="374"/>
  <unicode hex="10467"/>
  <outline>
    <contour>
      <point x="334" y="-10" type="curve"/>
      <point x="334" y="73" type="line"/>
      <point x="212" y="73"/>
      <point x="163" y="167"/>
      <point x="163" y="294" type="curve" smooth="yes"/>
      <point x="163" y="536" type="line"/>
      <point x="73" y="536" type="line"/>
      <point x="73" y="294" type="line" smooth="yes"/>
      <point x="73" y="126"/>
      <point x="137" y="-10"/>
    </contour>
  </outline>
</glyph>
<glyph name="u10468" format="2">
  <advance width="374"/>
  <unicode hex="10468"/>
  <outline>
    <contour>
      <point x="39" y="-10" type="line"/>
      <point x="236" y="-10"/>
      <point x="300" y="126"/>
      <point x="300" y="294" type="curve" smooth="yes"/>
      <point x="300" y="536" type="line"/>
      <point x="210" y="536" type="line"/>
      <point x="210" y="294" type="line" smooth="yes"/>
      <point x="210" y="167"/>
      <point x="161" y="73"/>
      <point x="39" y="73" type="curve"/>
    </contour>
  </outline>
</glyph>
<glyph name="u10469" format="2">
  <advance width="374"/>
  <unicode hex="10469"/>
  <outline>
    <contour>
      <point x="73" y="0" type="line"/>
      <point x="163" y="0" type="line"/>
      <point x="163" y="242" type="line" smooth="yes"/>
      <point x="163" y="369"/>
      <point x="212" y="463"/>
      <point x="334" y="463" type="curve"/>
      <point x="334" y="546" type="line"/>
      <point x="137" y="546"/>
      <point x="73" y="410"/>
      <point x="73" y="242" type="curve" smooth="yes"/>
    </contour>
  </outline>
</glyph>
<glyph name="u1046A" format="2">
  <advance width="374"/>
  <unicode hex="1046A"/>
  <outline>
    <contour>
      <point x="210" y="0" type="line"/>
      <point x="300" y="0" type="line"/>
      <point x="300" y="242" type="line" smooth="yes"/>
      <point x="300" y="410"/>
      <point x="236" y="546"/>
      <point x="39" y="546" type="curve"/>
      <point x="39" y="463" type="line"/>
      <point x="161" y="463"/>
      <point x="210" y="369"/>
      <point x="210" y="242" type="curve" smooth="yes"/>
    </contour>
  </outline>
</glyph>
<glyph name="u1046B" format="2">
  <advance width="513"/>
  <unicode hex="1046B"/>
  <outline>
    <contour>
      <point x="215" y="0" type="line"/>
      <point x="297" y="0" type="line"/>
      <point x="503" y="514" type="line"/>
      <point x="417" y="546" type="line"/>
      <point x="256" y="134" type="line"/>
      <point x="96" y="546" type="line"/>
      <point x="10" y="514" type="line"/>
    </contour>
  </outline>
</glyph>
<glyph name="u1046C" format="2">
  <advance width="340"/>
  <unicode hex="1046C"/>
  <outline>
    <contour>
      <point x="301" y="-10" type="curve"/>
      <point x="301" y="73" type="line"/>
      <point x="228" y="73"/>
      <point x="227" y="104"/>
      <point x="227" y="133" type="curve" smooth="yes"/>
      <point x="227" y="152" type="line" smooth="yes"/>
      <point x="227" y="203"/>
      <point x="218" y="263"/>
      <point x="146" y="283" type="curve"/>
      <point x="236" y="339"/>
      <point x="285" y="445"/>
      <point x="294" y="536" type="curve"/>
      <point x="205" y="536" type="line"/>
      <point x="187" y="435"/>
      <point x="109" y="330"/>
      <point x="10" y="298" type="curve"/>
      <point x="10" y="215" type="line"/>
      <point x="63" y="215" type="line" smooth="yes"/>
      <point x="137" y="215"/>
      <point x="137" y="182"/>
      <point x="137" y="152" type="curve" smooth="yes"/>
      <point x="137" y="133" type="line" smooth="yes"/>
      <point x="137" y="63"/>
      <point x="152" y="-10"/>
    </contour>
  </outline>
</glyph>
<glyph name="u1046D" format="2">
  <advance width="506"/>
  <unicode hex="1046D"/>
  <outline>
    <contour>
      <point x="108" y="-10" type="curve" smooth="yes"/>
      <point x="321" y="-10"/>
      <point x="400" y="125"/>
      <point x="400" y="223" type="curve" smooth="yes"/>
      <point x="400" y="242" type="line"/>
      <point x="384" y="240"/>
      <point x="372" y="239"/>
      <point x="354" y="239" type="curve" smooth="yes"/>
      <point x="269" y="239"/>
      <point x="237" y="298"/>
      <point x="237" y="350" type="curve" smooth="yes"/>
      <point x="237" y="412"/>
      <point x="275" y="463"/>
      <point x="360" y="463" type="curve" smooth="yes"/>
      <point x="392" y="463"/>
      <point x="437" y="459"/>
      <point x="467" y="453" type="curve"/>
      <point x="467" y="537" type="line"/>
      <point x="440" y="542"/>
      <point x="406" y="546"/>
      <point x="359" y="546" type="curve" smooth="yes"/>
      <point x="234" y="546"/>
      <point x="146" y="468"/>
      <point x="146" y="350" type="curve" smooth="yes"/>
      <point x="146" y="256"/>
      <point x="208" y="186"/>
      <point x="294" y="164" type="curve"/>
      <point x="262" y="105"/>
      <point x="186" y="73"/>
      <point x="105" y="73" type="curve" smooth="yes"/>
      <point x="86" y="73"/>
      <point x="64" y="75"/>
      <point x="41" y="79" type="curve"/>
      <point x="29" y="-3" type="line"/>
      <point x="57" y="-8"/>
      <point x="83" y="-10"/>
    </contour>
  </outline>
</glyph>
<glyph name="u1046E" format="2">
  <advance width="426"/>
  <unicode hex="1046E"/>
  <outline>
    <contour>
      <point x="93" y="-10" type="curve" smooth="yes"/>
      <point x="249" y="-10"/>
      <point x="370" y="79"/>
      <point x="370" y="267" type="curve" smooth="yes"/>
      <point x="370" y="455"/>
      <point x="249" y="546"/>
      <point x="93" y="546" type="curve" smooth="yes"/>
      <point x="74" y="546"/>
      <point x="55" y="543"/>
      <point x="49" y="543" type="curve"/>
      <point x="49" y="460" type="line"/>
      <point x="53" y="460"/>
      <point x="73" y="463"/>
      <point x="92" y="463" type="curve" smooth="yes"/>
      <point x="195" y="463"/>
      <point x="279" y="397"/>
      <point x="279" y="268" type="curve" smooth="yes"/>
      <point x="279" y="139"/>
      <point x="194" y="73"/>
      <point x="92" y="73" type="curve" smooth="yes"/>
      <point x="73" y="73"/>
      <point x="53" y="76"/>
      <point x="49" y="76" type="curve"/>
      <point x="49" y="-7" type="line"/>
      <point x="55" y="-7"/>
      <point x="74" y="-10"/>
    </contour>
  </outline>
</glyph>
<glyph name="u1046F" format="2">
  <advance width="440"/>
  <unicode hex="1046F"/>
  <outline>
    <contour>
      <point x="401" y="-10" type="curve"/>
      <point x="401" y="73" type="line"/>
      <point x="334" y="73"/>
      <point x="280" y="150"/>
      <point x="263" y="274" type="curve" smooth="yes"/>
      <point x="240" y="437"/>
      <point x="166" y="546"/>
      <point x="39" y="546" type="curve"/>
      <point x="39" y="463" type="line"/>
      <point x="106" y="463"/>
      <point x="163" y="385"/>
      <point x="177" y="267" type="curve" smooth="yes"/>
      <point x="197" y="95"/>
      <point x="274" y="-10"/>
    </contour>
  </outline>
</glyph>
<glyph name="u10470" format="2">
  <advance width="405"/>
  <unicode hex="10470"/>
  <outline>
    <contour>
      <point x="256" y="0" type="line"/>
      <point x="346" y="0" type="line"/>
      <point x="346" y="370" type="line"/>
      <point x="266" y="429" type="line"/>
      <point x="148" y="304" type="line"/>
      <point x="148" y="536" type="line"/>
      <point x="59" y="536" type="line"/>
      <point x="59" y="236" type="line"/>
      <point x="138" y="178" type="line"/>
      <point x="256" y="303" type="line"/>
    </contour>
  </outline>
</glyph>
<glyph name="u10471" format="2">
  <advance width="427"/>
  <unicode hex="10471"/>
  <outline>
    <contour>
      <point x="374" y="-10" type="curve"/>
      <point x="374" y="75" type="line"/>
      <point x="177" y="81"/>
      <point x="153" y="310"/>
      <point x="153" y="441" type="curve" smooth="yes"/>
      <point x="153" y="456" type="line"/>
      <point x="378" y="456" type="line"/>
      <point x="378" y="536" type="line"/>
      <point x="63" y="536" type="line"/>
      <point x="63" y="441" type="line" smooth="yes"/>
      <point x="63" y="252"/>
      <point x="119" y="-10"/>
    </contour>
  </outline>
</glyph>
<glyph name="u10472" format="2">
  <advance width="427"/>
  <unicode hex="10472"/>
  <outline>
    <contour>
      <point x="54" y="-10" type="line"/>
      <point x="308" y="-10"/>
      <point x="364" y="252"/>
      <point x="364" y="441" type="curve" smooth="yes"/>
      <point x="364" y="536" type="line"/>
      <point x="49" y="536" type="line"/>
      <point x="49" y="456" type="line"/>
      <point x="274" y="456" type="line"/>
      <point x="274" y="441" type="line" smooth="yes"/>
      <point x="274" y="310"/>
      <point x="250" y="81"/>
      <point x="54" y="75" type="curve"/>
    </contour>
  </outline>
</glyph>
<glyph name="u10473" format="2">
  <advance width="428"/>
  <unicode hex="10473"/>
  <outline>
    <contour>
      <point x="100" y="0" type="curve"/>
      <point x="189" y="0" type="line"/>
      <point x="189" y="168"/>
      <point x="256" y="366"/>
      <point x="403" y="458" type="curve"/>
      <point x="403" y="536" type="line"/>
      <point x="24" y="536" type="line"/>
      <point x="24" y="456" type="line"/>
      <point x="288" y="456" type="line"/>
      <point x="165" y="338"/>
      <point x="100" y="148"/>
    </contour>
  </outline>
</glyph>
<glyph name="u10474" format="2">
  <advance width="590"/>
  <unicode hex="10474"/>
  <outline>
    <contour>
      <point x="294" y="-10" type="curve" smooth="yes"/>
      <point x="426" y="-10"/>
      <point x="526" y="87"/>
      <point x="526" y="267" type="curve" smooth="yes"/>
      <point x="526" y="416"/>
      <point x="452" y="546"/>
      <point x="296" y="546" type="curve" smooth="yes"/>
      <point x="138" y="546"/>
      <point x="63" y="416"/>
      <point x="63" y="267" type="curve" smooth="yes"/>
      <point x="63" y="87"/>
      <point x="164" y="-10"/>
    </contour>
    <contour>
      <point x="295" y="73" type="curve" smooth="yes"/>
      <point x="221" y="73"/>
      <point x="154" y="137"/>
      <point x="154" y="268" type="curve" smooth="yes"/>
      <point x="154" y="397"/>
      <point x="221" y="463"/>
      <point x="299" y="463" type="curve" smooth="yes"/>
      <point x="371" y="463"/>
      <point x="436" y="395"/>
      <point x="436" y="268" type="curve" smooth="yes"/>
      <point x="436" y="137"/>
      <point x="369" y="73"/>
    </contour>
  </outline>
</glyph>
<glyph name="u10475" format="2">
  <advance width="513"/>
  <unicode hex="10475"/>
  <outline>
    <contour>
      <point x="96" y="-10" type="line"/>
      <point x="256" y="402" type="line"/>
      <point x="417" y="-10" type="line"/>
      <point x="503" y="22" type="line"/>
      <point x="297" y="536" type="line"/>
      <point x="215" y="536" type="line"/>
      <point x="10" y="22" type="line"/>
    </contour>
  </outline>
</glyph>
<glyph name="u10476" format="2">
  <advance width="340"/>
  <unicode hex="10476"/>
  <outline>
    <contour>
      <point x="45" y="0" type="curve"/>
      <point x="135" y="0" type="line"/>
      <point x="153" y="102"/>
      <point x="230" y="207"/>
      <point x="330" y="238" type="curve"/>
      <point x="330" y="321" type="line"/>
      <point x="276" y="321" type="line" smooth="yes"/>
      <point x="203" y="321"/>
      <point x="203" y="354"/>
      <point x="203" y="384" type="curve" smooth="yes"/>
      <point x="203" y="403" type="line" smooth="yes"/>
      <point x="203" y="473"/>
      <point x="188" y="546"/>
      <point x="39" y="546" type="curve"/>
      <point x="39" y="463" type="line"/>
      <point x="112" y="463"/>
      <point x="113" y="433"/>
      <point x="113" y="403" type="curve" smooth="yes"/>
      <point x="113" y="384" type="line" smooth="yes"/>
      <point x="113" y="333"/>
      <point x="122" y="273"/>
      <point x="194" y="253" type="curve"/>
      <point x="104" y="197"/>
      <point x="55" y="91"/>
    </contour>
  </outline>
</glyph>
<glyph name="u10477" format="2">
  <advance width="506"/>
  <unicode hex="10477"/>
  <outline>
    <contour>
      <point x="397" y="-10" type="curve" smooth="yes"/>
      <point x="423" y="-10"/>
      <point x="449" y="-8"/>
      <point x="477" y="-3" type="curve"/>
      <point x="465" y="79" type="line"/>
      <point x="441" y="75"/>
      <point x="420" y="73"/>
      <point x="401" y="73" type="curve" smooth="yes"/>
      <point x="319" y="73"/>
      <point x="244" y="105"/>
      <point x="211" y="164" type="curve"/>
      <point x="298" y="186"/>
      <point x="359" y="256"/>
      <point x="359" y="350" type="curve" smooth="yes"/>
      <point x="359" y="468"/>
      <point x="272" y="546"/>
      <point x="147" y="546" type="curve" smooth="yes"/>
      <point x="100" y="546"/>
      <point x="66" y="542"/>
      <point x="39" y="537" type="curve"/>
      <point x="39" y="453" type="line"/>
      <point x="69" y="459"/>
      <point x="114" y="463"/>
      <point x="146" y="463" type="curve" smooth="yes"/>
      <point x="231" y="463"/>
      <point x="269" y="412"/>
      <point x="269" y="350" type="curve" smooth="yes"/>
      <point x="269" y="298"/>
      <point x="237" y="239"/>
      <point x="152" y="239" type="curve" smooth="yes"/>
      <point x="134" y="239"/>
      <point x="122" y="240"/>
      <point x="105" y="242" type="curve"/>
      <point x="105" y="226" type="line" smooth="yes"/>
      <point x="105" y="110"/>
      <point x="202" y="-10"/>
    </contour>
  </outline>
</glyph>
<glyph name="u10478" format="2">
  <advance width="665"/>
  <unicode hex="10478"/>
  <outline>
    <contour>
      <point x="49" y="-10" type="line"/>
      <point x="241" y="-10"/>
      <point x="316" y="109"/>
      <point x="316" y="206" type="curve" smooth="yes"/>
      <point x="316" y="217" type="line"/>
      <point x="300" y="216"/>
      <point x="288" y="215"/>
      <point x="270" y="215" type="curve" smooth="yes"/>
      <point x="185" y="215"/>
      <point x="153" y="273"/>
      <point x="153" y="325" type="curve" smooth="yes"/>
      <point x="153" y="397"/>
      <point x="199" y="463"/>
      <point x="327" y="463" type="curve" smooth="yes"/>
      <point x="459" y="463"/>
      <point x="518" y="397"/>
      <point x="518" y="268" type="curve" smooth="yes"/>
      <point x="518" y="139"/>
      <point x="448" y="83"/>
      <point x="354" y="72" type="curve"/>
      <point x="354" y="-10" type="line"/>
      <point x="487" y="-7"/>
      <point x="608" y="87"/>
      <point x="608" y="267" type="curve" smooth="yes"/>
      <point x="608" y="428"/>
      <point x="520" y="546"/>
      <point x="324" y="546" type="curve" smooth="yes"/>
      <point x="157" y="546"/>
      <point x="63" y="443"/>
      <point x="63" y="325" type="curve" smooth="yes"/>
      <point x="63" y="232"/>
      <point x="123" y="163"/>
      <point x="208" y="140" type="curve"/>
      <point x="174" y="84"/>
      <point x="111" y="73"/>
      <point x="49" y="73" type="curve"/>
    </contour>
  </outline>
</glyph>
<glyph name="u10479" format="2">
  <advance width="670"/>
  <unicode hex="10479"/>
  <outline>
    <contour>
      <point x="342" y="-10" type="curve" smooth="yes"/>
      <point x="528" y="-10"/>
      <point x="614" y="118"/>
      <point x="614" y="270" type="curve" smooth="yes"/>
      <point x="614" y="444"/>
      <point x="501" y="540"/>
      <point x="360" y="546" type="curve"/>
      <point x="360" y="463" type="line"/>
      <point x="439" y="458"/>
      <point x="523" y="407"/>
      <point x="523" y="269" type="curve" smooth="yes"/>
      <point x="523" y="139"/>
      <point x="458" y="73"/>
      <point x="343" y="73" type="curve" smooth="yes"/>
      <point x="233" y="73"/>
      <point x="183" y="132"/>
      <point x="165" y="204" type="curve"/>
      <point x="250" y="217"/>
      <point x="308" y="274"/>
      <point x="308" y="369" type="curve" smooth="yes"/>
      <point x="308" y="478"/>
      <point x="230" y="546"/>
      <point x="105" y="546" type="curve" smooth="yes"/>
      <point x="83" y="546"/>
      <point x="66" y="546"/>
      <point x="49" y="544" type="curve"/>
      <point x="49" y="461" type="line"/>
      <point x="68" y="463"/>
      <point x="88" y="463"/>
      <point x="104" y="463" type="curve" smooth="yes"/>
      <point x="189" y="463"/>
      <point x="217" y="422"/>
      <point x="217" y="369" type="curve" smooth="yes"/>
      <point x="217" y="317"/>
      <point x="195" y="278"/>
      <point x="110" y="278" type="curve" smooth="yes"/>
      <point x="92" y="278"/>
      <point x="80" y="279"/>
      <point x="64" y="281" type="curve"/>
      <point x="64" y="256" type="line" smooth="yes"/>
      <point x="64" y="125"/>
      <point x="141" y="-10"/>
    </contour>
  </outline>
</glyph>
<glyph name="u1047A" format="2">
  <advance width="733"/>
  <unicode hex="1047A"/>
  <outline>
    <contour>
      <point x="229" y="-10" type="curve"/>
      <point x="229" y="74" type="line"/>
      <point x="172" y="79"/>
      <point x="140" y="106"/>
      <point x="140" y="147" type="curve" smooth="yes"/>
      <point x="140" y="194"/>
      <point x="168" y="222"/>
      <point x="211" y="228" type="curve"/>
      <point x="223" y="211"/>
      <point x="240" y="196"/>
      <point x="263" y="179" type="curve"/>
      <point x="316" y="237" type="line"/>
      <point x="307" y="248"/>
      <point x="270" y="275"/>
      <point x="270" y="335" type="curve" smooth="yes"/>
      <point x="270" y="398"/>
      <point x="307" y="463"/>
      <point x="425" y="463" type="curve" smooth="yes"/>
      <point x="512" y="463"/>
      <point x="586" y="407"/>
      <point x="586" y="277" type="curve" smooth="yes"/>
      <point x="586" y="154"/>
      <point x="523" y="85"/>
      <point x="423" y="72" type="curve"/>
      <point x="423" y="-10" type="line"/>
      <point x="571" y="0"/>
      <point x="677" y="104"/>
      <point x="677" y="276" type="curve" smooth="yes"/>
      <point x="677" y="438"/>
      <point x="581" y="546"/>
      <point x="425" y="546" type="curve" smooth="yes"/>
      <point x="265" y="546"/>
      <point x="179" y="450"/>
      <point x="179" y="333" type="curve" smooth="yes"/>
      <point x="179" y="324"/>
      <point x="180" y="315"/>
      <point x="180" y="307" type="curve"/>
      <point x="108" y="292"/>
      <point x="49" y="242"/>
      <point x="49" y="147" type="curve" smooth="yes"/>
      <point x="49" y="46"/>
      <point x="140" y="-10"/>
    </contour>
  </outline>
</glyph>
<glyph name="u1047B" format="2">
  <advance width="733"/>
  <unicode hex="1047B"/>
  <outline>
    <contour>
      <point x="425" y="-10" type="curve" smooth="yes"/>
      <point x="581" y="-10"/>
      <point x="677" y="98"/>
      <point x="677" y="260" type="curve" smooth="yes"/>
      <point x="677" y="432"/>
      <point x="571" y="537"/>
      <point x="423" y="546" type="curve"/>
      <point x="423" y="464" type="line"/>
      <point x="523" y="451"/>
      <point x="586" y="382"/>
      <point x="586" y="259" type="curve" smooth="yes"/>
      <point x="586" y="129"/>
      <point x="512" y="73"/>
      <point x="425" y="73" type="curve" smooth="yes"/>
      <point x="307" y="73"/>
      <point x="270" y="138"/>
      <point x="270" y="201" type="curve" smooth="yes"/>
      <point x="270" y="261"/>
      <point x="307" y="289"/>
      <point x="316" y="299" type="curve"/>
      <point x="263" y="357" type="line"/>
      <point x="240" y="340"/>
      <point x="223" y="324"/>
      <point x="211" y="309" type="curve"/>
      <point x="168" y="314"/>
      <point x="140" y="342"/>
      <point x="140" y="389" type="curve" smooth="yes"/>
      <point x="140" y="430"/>
      <point x="172" y="458"/>
      <point x="229" y="462" type="curve"/>
      <point x="229" y="546" type="line"/>
      <point x="140" y="546"/>
      <point x="49" y="490"/>
      <point x="49" y="389" type="curve" smooth="yes"/>
      <point x="49" y="294"/>
      <point x="108" y="244"/>
      <point x="180" y="229" type="curve"/>
      <point x="180" y="221"/>
      <point x="179" y="212"/>
      <point x="179" y="203" type="curve" smooth="yes"/>
      <point x="179" y="86"/>
      <point x="265" y="-10"/>
    </contour>
  </outline>
</glyph>
<glyph name="u1047C" format="2">
  <advance width="704"/>
  <unicode hex="1047C"/>
  <outline>
    <contour>
      <point x="365" y="-10" type="curve" smooth="yes"/>
      <point x="546" y="-10"/>
      <point x="647" y="140"/>
      <point x="647" y="288" type="curve" smooth="yes"/>
      <point x="647" y="440"/>
      <point x="573" y="546"/>
      <point x="406" y="546" type="curve" smooth="yes"/>
      <point x="87" y="546"/>
      <point x="49" y="117"/>
      <point x="39" y="0" type="curve"/>
      <point x="129" y="0" type="line"/>
      <point x="140" y="117"/>
      <point x="174" y="463"/>
      <point x="412" y="463" type="curve" smooth="yes"/>
      <point x="493" y="463"/>
      <point x="557" y="402"/>
      <point x="557" y="288" type="curve" smooth="yes"/>
      <point x="557" y="181"/>
      <point x="487" y="73"/>
      <point x="363" y="73" type="curve" smooth="yes"/>
      <point x="347" y="73"/>
      <point x="330" y="76"/>
      <point x="313" y="82" type="curve"/>
      <point x="290" y="1" type="line"/>
      <point x="315" y="-6"/>
      <point x="340" y="-10"/>
    </contour>
  </outline>
</glyph>
<glyph name="u1047D" format="2">
  <advance width="738"/>
  <unicode hex="1047D"/>
  <outline>
    <contour>
      <point x="399" y="-10" type="curve" smooth="yes"/>
      <point x="581" y="-10"/>
      <point x="682" y="140"/>
      <point x="682" y="288" type="curve" smooth="yes"/>
      <point x="682" y="449"/>
      <point x="602" y="546"/>
      <point x="440" y="546" type="curve" smooth="yes"/>
      <point x="298" y="546"/>
      <point x="214" y="461"/>
      <point x="163" y="356" type="curve"/>
      <point x="163" y="536" type="line"/>
      <point x="73" y="536" type="line"/>
      <point x="73" y="0" type="line"/>
      <point x="163" y="0" type="line"/>
      <point x="164" y="141"/>
      <point x="217" y="463"/>
      <point x="438" y="463" type="curve" smooth="yes"/>
      <point x="525" y="463"/>
      <point x="591" y="412"/>
      <point x="591" y="283" type="curve" smooth="yes"/>
      <point x="591" y="176"/>
      <point x="521" y="73"/>
      <point x="397" y="73" type="curve" smooth="yes"/>
      <point x="381" y="73"/>
      <point x="364" y="76"/>
      <point x="348" y="82" type="curve"/>
      <point x="324" y="1" type="line"/>
      <point x="350" y="-6"/>
      <point x="375" y="-10"/>
    </contour>
  </outline>
</glyph>
<glyph name="u1047E" format="2">
  <advance width="450"/>
  <unicode hex="1047E"/>
  <outline>
    <contour>
      <point x="73" y="0" type="line"/>
      <point x="163" y="0" type="line"/>
      <point x="163" y="89" type="line"/>
      <point x="171" y="187"/>
      <point x="250" y="428"/>
      <point x="431" y="462" type="curve"/>
      <point x="431" y="546" type="line"/>
      <point x="296" y="545"/>
      <point x="197" y="418"/>
      <point x="163" y="334" type="curve"/>
      <point x="163" y="536" type="line"/>
      <point x="73" y="536" type="line"/>
    </contour>
  </outline>
</glyph>
<glyph name="u1047F" format="2">
  <advance width="599"/>
  <unicode hex="1047F"/>
  <outline>
    <contour>
      <point x="500" y="-10" type="line"/>
      <point x="580" y="17" type="line"/>
      <point x="429" y="536" type="line"/>
      <point x="348" y="536" type="line"/>
      <point x="213" y="153" type="line"/>
      <point x="84" y="781" type="line"/>
      <point x="0" y="763" type="line"/>
      <point x="160" y="0" type="line"/>
      <point x="248" y="0" type="line"/>
      <point x="389" y="402" type="line"/>
    </contour>
  </outline>
</glyph>
